<svg xmlns="http://www.w3.org/2000/svg" width="766" height="201" viewBox="0 0 766 201">
<g>
<path d="M 95.47,182.78 L 95.43,182.68 L 95.37,182.20 L 95.34,181.91 L 95.29,181.07 L 95.26,180.61 L 95.22,179.45 L 95.21,178.84 L 95.18,177.42 L 95.16,175.94 L 95.16,172.37 L 95.22,166.46 L 95.50,151.50 L 102.50,151.18 L 104.02,151.11 L 106.79,151.17 L 108.13,151.23 L 110.53,151.54 L 111.68,151.73 L 113.70,152.30 L 114.67,152.61 L 116.31,153.43 L 117.09,153.87 L 118.36,154.94 L 118.94,155.50 L 119.82,156.82 L 120.21,157.51 L 120.70,159.07 L 121.00,161.68 L 121.00,162.67 L 120.61,164.74 L 120.36,165.77 L 119.58,167.72 L 119.14,168.66 L 118.08,170.23 L 116.32,171.84 L 115.95,172.05 L 115.52,172.49 L 115.37,172.73 L 115.44,173.43 L 115.55,173.84 L 116.18,175.05 L 116.37,175.40 L 116.88,176.23 L 117.82,177.73 L 118.26,178.41 L 119.06,179.70 L 119.44,180.33 L 120.07,181.42 L 120.35,181.92 L 120.75,182.69 L 121.00,183.34 L 121.00,183.52 L 120.25,183.81 L 118.46,184.00 L 117.97,184.00 L 117.08,183.76 L 116.65,183.60 L 115.80,182.95 L 115.37,182.57 L 114.43,181.42 L 112.81,179.00 L 112.44,178.41 L 111.81,177.42 L 111.51,176.96 L 110.98,176.22 L 110.47,175.53 L 109.53,174.72 L 109.04,174.39 L 107.87,174.11 L 105.41,174.00 L 101.11,174.00 L 100.80,178.75 L 100.74,179.76 L 100.57,181.22 L 100.46,181.86 L 100.15,182.70 L 99.97,183.07 L 99.42,183.48 L 98.25,183.82 L 97.63,183.91 L 96.50,183.65 L 96.00,183.46 M 110.95,168.36 L 111.85,168.18 L 113.30,167.38 L 113.96,166.91 L 114.89,165.62 L 115.29,164.92 L 115.63,163.27 L 115.41,160.50 L 115.24,159.81 L 114.28,158.64 L 113.70,158.09 L 112.03,157.22 L 111.11,156.83 L 108.83,156.32 L 104.85,156.00 L 101.00,156.00 L 101.00,162.50 L 101.00,169.00 L 104.38,169.00 L 105.30,169.00 L 107.70,168.81 L 108.89,168.70 M 184.12,182.29 L 183.66,182.06 L 182.58,181.33 L 182.03,180.93 L 180.89,179.95 L 177.87,176.66 L 177.15,175.67 L 176.12,173.52 L 175.67,172.43 L 175.17,170.16 L 174.98,169.02 L 174.98,166.70 L 175.04,165.55 L 175.53,163.29 L 175.82,162.17 L 176.76,160.05 L 177.29,159.01 L 178.66,157.11 L 179.40,156.19 L 181.18,154.61 L 184.28,152.67 L 185.12,152.27 L 186.80,151.71 L 187.65,151.46 L 189.33,151.17 L 191.02,150.94 L 194.31,151.25 L 195.93,151.52 L 198.95,152.71 L 200.42,153.39 L 203.00,155.30 L 204.22,156.34 L 206.18,158.82 L 207.07,160.13 L 208.24,163.04 L 208.48,163.79 L 208.77,165.34 L 208.88,166.13 L 208.91,167.74 L 208.90,168.55 L 208.65,170.19 L 207.94,172.68 L 207.61,173.55 L 206.47,175.42 L 205.83,176.36 L 204.24,178.22 L 203.40,179.12 L 201.57,180.73 L 198.80,182.59 L 197.90,183.06 L 195.57,183.63 L 194.34,183.85 L 191.66,183.92 L 190.31,183.89 L 187.66,183.47 L 186.37,183.19 M 196.99,177.51 L 198.02,176.97 L 199.67,175.70 L 200.42,175.03 L 201.54,173.44 L 202.03,172.61 L 202.64,170.68 L 203.00,167.35 L 203.00,166.35 L 202.67,164.48 L 202.45,163.58 L 201.73,161.96 L 201.32,161.18 L 200.25,159.82 L 199.68,159.18 L 198.32,158.14 L 197.62,157.66 L 196.02,156.96 L 195.20,156.65 L 193.42,156.33 L 192.52,156.22 L 190.60,156.31 L 187.65,156.95 L 186.90,157.20 L 185.56,157.89 L 184.92,158.27 L 183.81,159.20 L 183.28,159.70 L 182.41,160.83 L 182.00,161.41 L 181.38,162.71 L 181.11,163.37 L 180.76,164.80 L 180.62,165.52 L 180.56,167.03 L 180.57,167.80 L 180.80,169.37 L 181.51,171.74 L 181.84,172.55 L 182.67,173.99 L 183.11,174.67 L 184.15,175.84 L 184.70,176.39 L 185.91,177.28 L 186.54,177.68 L 187.89,178.27 L 188.58,178.53 L 190.04,178.81 L 190.78,178.92 L 192.31,178.88 L 193.08,178.82 L 194.64,178.45 L 195.43,178.22 M 264.44,182.71 L 264.41,182.62 L 264.35,182.14 L 264.32,181.86 L 264.27,181.02 L 264.25,180.57 L 264.21,179.42 L 264.19,178.81 L 264.17,177.40 L 264.15,175.93 L 264.15,172.37 L 264.22,166.46 L 264.50,151.50 L 272.43,151.20 L 273.51,151.16 L 275.45,151.16 L 276.40,151.16 L 278.09,151.25 L 279.73,151.37 L 282.34,151.92 L 283.54,152.25 L 285.41,153.26 L 287.54,155.36 L 288.04,156.08 L 288.63,157.53 L 288.86,158.27 L 288.91,159.75 L 288.87,160.50 L 288.38,161.99 L 287.04,164.23 L 285.07,166.72 L 287.54,169.03 L 288.09,169.56 L 288.92,170.71 L 289.30,171.31 L 289.77,172.56 L 289.96,173.20 L 290.08,174.50 L 290.11,175.15 L 289.90,176.44 L 289.75,177.08 L 289.22,178.30 L 288.91,178.90 L 288.07,180.00 L 287.62,180.53 L 286.48,181.46 L 284.45,182.58 L 283.90,182.82 L 282.35,183.20 L 281.52,183.37 L 279.55,183.64 L 277.52,183.88 L 273.05,184.02 L 271.96,184.03 L 269.91,183.96 L 268.93,183.90 L 267.24,183.72 L 266.46,183.61 L 265.32,183.30 L 264.84,183.13 M 281.43,178.02 L 281.92,177.84 L 282.66,177.42 L 282.99,177.19 L 283.45,176.63 L 283.65,176.33 L 283.87,175.57 L 284.00,174.13 L 284.00,173.25 L 283.68,171.99 L 283.43,171.44 L 282.38,170.74 L 282.05,170.59 L 281.21,170.37 L 280.76,170.28 L 279.62,170.15 L 279.01,170.09 L 277.54,170.03 L 274.92,170.00 L 269.00,170.00 L 269.00,174.50 L 269.00,179.00 L 273.93,179.00 L 275.29,179.00 L 278.17,178.71 L 278.85,178.63 L 280.05,178.40 L 280.61,178.29 M 282.82,160.75 L 282.91,159.94 L 282.49,158.65 L 282.17,158.05 L 280.92,157.16 L 280.19,156.77 L 278.08,156.29 L 273.93,156.00 L 272.95,156.00 L 271.66,156.06 L 271.11,156.13 L 270.49,156.51 L 270.25,156.76 L 270.06,157.71 L 270.00,160.05 L 270.00,164.10 L 276.25,163.80 L 277.00,163.76 L 278.24,163.69 L 278.82,163.66 L 279.76,163.57 L 280.63,163.48 L 281.67,163.16 L 282.09,162.96 L 282.50,162.30 L 282.67,161.91 M 352.50,182.13 L 350.99,181.19 L 348.51,179.02 L 347.37,177.89 L 345.62,175.43 L 344.84,174.18 L 343.83,171.54 L 343.42,170.21 L 343.15,167.51 L 343.10,166.16 L 343.57,163.51 L 343.90,162.20 L 345.12,159.71 L 345.82,158.50 L 347.78,156.28 L 351.58,153.40 L 352.53,152.84 L 354.47,152.03 L 355.43,151.67 L 357.36,151.24 L 358.33,151.07 L 360.23,151.00 L 361.17,151.01 L 363.01,151.26 L 363.91,151.42 L 365.66,151.97 L 366.52,152.27 L 368.15,153.08 L 368.95,153.52 L 370.42,154.56 L 371.14,155.11 L 372.44,156.36 L 373.07,157.00 L 374.16,158.42 L 374.68,159.15 L 375.54,160.72 L 375.94,161.51 L 376.53,163.19 L 376.79,164.04 L 377.08,165.80 L 377.19,166.68 L 377.16,168.50 L 377.11,169.41 L 376.73,171.24 L 376.49,172.16 L 375.72,173.98 L 374.12,176.68 L 373.48,177.55 L 372.00,179.09 L 371.23,179.82 L 369.52,181.05 L 368.65,181.63 L 366.78,182.55 L 365.83,182.97 L 363.86,183.55 L 362.88,183.80 L 360.88,184.03 L 359.89,184.11 L 357.93,183.98 L 356.96,183.86 L 355.10,183.35 L 354.19,183.04 M 366.07,177.30 L 366.47,177.06 L 367.32,176.33 L 367.74,175.92 L 368.57,174.94 L 370.54,171.62 L 370.90,170.70 L 371.36,169.33 L 371.54,168.69 L 371.63,167.58 L 371.62,167.02 L 371.33,165.76 L 370.47,163.29 L 370.20,162.58 L 369.51,161.31 L 369.15,160.71 L 368.29,159.66 L 367.41,158.67 L 365.27,157.33 L 364.16,156.76 L 361.76,156.23 L 360.54,156.06 L 358.10,156.30 L 356.89,156.51 L 354.64,157.48 L 353.56,158.06 L 351.74,159.72 L 350.90,160.63 L 349.74,162.94 L 349.51,163.55 L 349.19,164.90 L 349.00,167.08 L 349.00,168.36 L 349.26,170.45 L 349.45,171.43 L 350.15,173.06 L 350.56,173.83 L 351.78,175.17 L 354.31,177.05 L 355.30,177.65 L 357.28,178.41 L 358.27,178.72 L 360.25,178.91 L 361.24,178.93 L 363.19,178.54 L 364.16,178.27 M 438.71,183.38 L 438.66,183.33 L 438.57,182.96 L 438.52,182.74 L 438.43,182.05 L 438.39,181.67 L 438.31,180.70 L 438.28,180.19 L 438.21,178.97 L 438.14,177.71 L 438.06,174.60 L 438.00,169.39 L 438.00,156.11 L 433.25,155.80 L 432.25,155.74 L 430.83,155.57 L 430.20,155.48 L 429.38,155.19 L 429.04,155.02 L 428.68,154.53 L 428.50,153.50 L 428.50,153.03 L 428.79,152.39 L 428.91,152.25 L 429.33,152.04 L 429.58,151.94 L 430.31,151.79 L 430.72,151.72 L 431.84,151.63 L 432.46,151.59 L 434.05,151.55 L 434.92,151.53 L 437.07,151.51 L 441.00,151.50 L 442.53,151.50 L 445.04,151.51 L 446.22,151.51 L 448.11,151.54 L 448.98,151.56 L 450.34,151.63 L 450.96,151.67 L 451.87,151.80 L 452.28,151.87 L 452.84,152.07 L 453.09,152.18 L 453.40,152.47 L 453.82,153.75 L 453.89,154.27 L 453.86,154.98 L 453.80,155.29 L 453.32,155.65 L 453.00,155.81 L 451.84,155.94 L 449.10,156.00 L 444.06,156.00 L 443.78,169.75 L 443.75,171.37 L 443.68,174.07 L 443.65,175.33 L 443.58,177.38 L 443.54,178.33 L 443.44,179.82 L 443.38,180.51 L 443.24,181.53 L 443.17,182.00 L 442.97,182.65 L 442.86,182.94 L 442.60,183.31 L 441.46,183.79 L 440.90,183.87 L 439.81,183.79 L 439.31,183.71 M 508.00,167.50 L 508.00,150.86 L 510.25,151.18 L 510.81,151.26 L 511.54,151.64 L 511.70,151.79 L 511.94,152.31 L 512.05,152.61 L 512.21,153.52 L 512.28,154.04 L 512.38,155.46 L 512.42,156.25 L 512.46,158.32 L 512.48,159.44 L 512.49,162.27 L 512.50,167.50 L 512.50,169.48 L 512.49,172.73 L 512.49,174.25 L 512.46,176.68 L 512.44,177.81 L 512.38,179.54 L 512.33,180.33 L 512.21,181.48 L 512.14,181.99 L 511.94,182.69 L 511.83,183.00 L 511.54,183.36 L 510.25,183.82 L 508.00,184.14 L 508.00,167.50 M 579.00,183.18 L 577.42,182.46 L 574.61,180.35 L 573.29,179.20 L 571.13,176.44 L 570.15,175.00 L 568.83,171.85 L 568.56,171.06 L 568.21,169.44 L 568.00,167.02 L 568.00,166.56 L 568.20,165.38 L 568.33,164.76 L 568.75,163.38 L 570.54,159.34 L 571.11,158.36 L 572.48,156.65 L 573.20,155.84 L 574.83,154.47 L 575.67,153.83 L 577.50,152.80 L 578.43,152.34 L 580.42,151.68 L 581.42,151.40 L 583.51,151.12 L 584.56,151.03 L 586.69,151.14 L 587.76,151.25 L 589.90,151.77 L 593.04,153.02 L 594.11,153.57 L 595.55,154.45 L 596.16,154.87 L 596.74,155.61 L 596.93,155.97 L 596.71,156.70 L 595.57,157.94 L 595.29,158.17 L 594.74,158.44 L 594.45,158.55 L 593.81,158.56 L 593.47,158.53 L 592.65,158.27 L 591.12,157.56 L 590.38,157.18 L 588.83,156.64 L 588.05,156.41 L 586.46,156.16 L 585.66,156.07 L 584.09,156.11 L 583.31,156.16 L 581.80,156.45 L 581.07,156.64 L 579.69,157.19 L 579.02,157.49 L 577.83,158.28 L 577.26,158.70 L 576.30,159.71 L 575.19,161.47 L 574.78,162.39 L 574.29,164.57 L 574.10,165.69 L 574.06,168.01 L 574.09,169.15 L 574.49,171.26 L 575.56,173.78 L 576.03,174.45 L 577.41,175.72 L 578.16,176.34 L 579.89,177.39 L 580.77,177.88 L 582.57,178.56 L 585.05,179.00 L 585.34,179.00 L 586.15,178.87 L 586.58,178.79 L 587.57,178.52 L 590.61,177.38 L 591.29,177.06 L 592.36,176.63 L 592.86,176.46 L 593.64,176.33 L 594.00,176.30 L 594.63,176.46 L 595.52,177.02 L 595.79,177.24 L 596.13,177.72 L 596.26,177.96 L 596.33,178.44 L 596.34,178.93 L 595.69,179.92 L 595.26,180.41 L 593.90,181.33 L 593.15,181.77 L 591.30,182.55 L 590.33,182.91 L 588.19,183.46 L 587.10,183.70 L 584.89,183.95 L 583.80,184.03 L 581.72,183.89 L 580.72,183.77 M 656.46,183.37 L 656.18,183.31 L 655.44,183.01 L 655.05,182.83 L 654.16,182.35 L 651.46,180.53 L 650.80,179.99 L 649.92,179.20 L 649.55,178.84 L 649.23,178.27 L 649.13,178.00 L 649.30,177.48 L 650.04,176.57 L 650.39,176.21 L 650.98,175.78 L 651.28,175.61 L 651.95,175.57 L 652.33,175.60 L 653.34,175.96 L 655.50,177.00 L 657.03,177.78 L 660.04,178.59 L 660.77,178.73 L 662.15,178.84 L 662.82,178.86 L 664.05,178.74 L 664.64,178.65 L 665.66,178.30 L 666.14,178.10 L 666.91,177.54 L 667.25,177.23 L 667.71,176.46 L 668.00,175.09 L 668.00,174.47 L 667.67,173.46 L 667.42,172.97 L 666.42,172.08 L 665.81,171.63 L 663.90,170.68 L 663.36,170.43 L 662.05,169.90 L 659.75,169.01 L 658.14,168.40 L 655.67,167.14 L 654.55,166.49 L 652.96,165.04 L 652.27,164.28 L 651.46,162.51 L 651.00,159.37 L 651.00,158.76 L 651.21,157.62 L 651.35,157.06 L 651.83,156.02 L 652.10,155.51 L 652.82,154.59 L 653.21,154.15 L 654.15,153.37 L 655.14,152.62 L 657.67,151.63 L 662.13,151.00 L 663.47,151.00 L 666.09,151.38 L 667.36,151.62 L 669.58,152.39 L 670.60,152.80 L 672.06,153.80 L 672.36,154.05 L 672.75,154.59 L 673.00,155.40 L 673.00,155.86 L 672.57,156.78 L 672.31,157.22 L 671.58,157.92 L 671.20,158.23 L 670.44,158.49 L 669.58,158.14 L 669.48,157.97 L 669.00,157.65 L 668.72,157.49 L 667.94,157.21 L 667.11,156.93 L 664.93,156.52 L 663.82,156.35 L 661.60,156.23 L 658.98,156.51 L 658.59,156.63 L 658.01,156.96 L 657.75,157.14 L 657.42,157.61 L 657.27,157.87 L 657.16,158.55 L 657.19,159.84 L 657.26,160.40 L 657.56,161.28 L 657.76,161.69 L 658.49,162.38 L 658.92,162.72 L 660.26,163.38 L 663.18,164.51 L 664.74,165.06 L 667.95,166.64 L 668.69,167.04 L 669.98,167.84 L 671.43,168.93 L 672.17,169.63 L 673.15,171.13 L 673.57,171.89 L 673.95,173.48 L 674.06,174.27 L 673.89,175.85 L 673.73,176.63 L 673.04,178.12 L 672.64,178.85 L 671.49,180.16 L 670.86,180.78 L 669.30,181.83 L 668.47,182.31 L 666.55,183.00 L 663.30,183.56 L 661.98,183.63 L 659.31,183.62 L 658.69,183.60 L 657.63,183.53 L 657.15,183.49 M 136.23,122.51 L 134.33,121.98 L 131.21,120.87 L 129.73,120.29 L 127.11,118.90 L 125.81,118.14 L 123.23,116.18 L 122.56,115.64 L 121.16,114.42 L 118.90,112.32 L 117.06,110.57 L 113.95,106.72 L 110.37,100.71 L 109.74,99.34 L 108.86,97.12 L 108.47,96.05 L 107.99,93.93 L 107.79,92.83 L 107.59,90.19 L 107.56,89.47 L 107.52,87.81 L 107.50,84.95 L 107.50,83.83 L 107.52,81.95 L 107.53,81.05 L 107.59,79.53 L 107.66,78.07 L 108.02,75.81 L 108.25,74.72 L 109.05,72.58 L 109.29,72.02 L 109.87,70.77 L 110.94,68.62 L 112.10,66.33 L 114.84,62.29 L 116.27,60.35 L 119.52,57.02 L 121.20,55.45 L 124.90,52.85 L 126.80,51.65 L 130.91,49.82 L 133.01,49.00 L 137.48,47.94 L 139.75,47.51 L 144.53,47.25 L 146.95,47.22 L 151.97,47.77 L 159.75,49.55 L 160.18,49.68 L 160.82,49.79 L 161.11,49.82 L 161.51,49.73 L 161.69,49.65 L 161.89,49.33 L 162.00,48.58 L 162.00,48.22 L 162.34,47.72 L 162.60,47.51 L 163.76,47.26 L 164.12,47.21 L 165.06,47.16 L 165.57,47.13 L 166.86,47.12 L 167.55,47.12 L 169.23,47.14 L 172.25,47.22 L 182.50,47.50 L 182.50,85.00 L 182.50,122.50 L 173.02,122.79 L 172.06,122.82 L 170.40,122.85 L 169.61,122.87 L 168.26,122.87 L 166.98,122.86 L 165.19,122.72 L 164.39,122.62 L 163.37,122.29 L 162.40,121.53 L 162.15,121.19 L 161.69,120.75 L 161.45,120.58 L 160.85,120.49 L 160.52,120.49 L 159.59,120.75 L 157.56,121.54 L 156.20,122.11 L 152.81,122.89 L 151.04,123.23 L 147.18,123.53 L 145.24,123.62 L 141.41,123.41 L 139.55,123.25 M 153.69,100.05 L 155.03,99.44 L 157.24,97.66 L 158.26,96.70 L 159.83,94.34 L 160.54,93.11 L 161.46,90.38 L 161.84,88.98 L 162.11,86.06 L 162.17,84.59 L 161.78,81.67 L 161.50,80.23 L 160.45,77.50 L 159.84,76.18 L 158.11,73.85 L 154.76,70.99 L 153.51,70.23 L 150.92,69.22 L 149.61,68.80 L 146.96,68.42 L 145.63,68.31 L 143.03,68.54 L 141.74,68.73 L 139.28,69.52 L 138.07,69.98 L 135.85,71.30 L 134.78,72.02 L 132.90,73.83 L 132.02,74.79 L 130.58,77.05 L 129.03,80.89 L 128.79,81.80 L 128.51,83.56 L 128.40,84.44 L 128.39,86.14 L 128.43,87.81 L 129.24,90.90 L 129.75,92.39 L 131.37,95.02 L 132.27,96.26 L 134.57,98.32 L 135.79,99.27 L 138.61,100.64 L 140.08,101.23 L 143.29,101.82 L 144.93,102.00 L 148.39,101.68 L 150.14,101.39 M 446.47,122.78 L 446.39,122.58 L 446.28,121.44 L 446.23,120.77 L 446.17,118.86 L 446.14,117.83 L 446.14,115.40 L 446.21,111.43 L 446.50,101.50 L 463.00,101.00 L 465.02,100.94 L 468.35,100.83 L 469.91,100.78 L 472.41,100.67 L 473.56,100.62 L 475.35,100.50 L 476.16,100.43 L 477.36,100.27 L 477.89,100.18 L 478.63,99.96 L 478.94,99.84 L 479.33,99.54 L 479.82,98.25 L 479.89,97.73 L 479.86,97.03 L 479.80,96.72 L 479.33,96.35 L 479.02,96.20 L 477.90,96.06 L 475.25,96.00 L 473.12,96.00 L 469.19,95.51 L 467.29,95.18 L 463.79,94.01 L 462.10,93.35 L 459.01,91.50 L 454.79,87.95 L 453.38,86.49 L 451.17,83.34 L 450.16,81.73 L 448.77,78.36 L 448.17,76.66 L 447.57,73.18 L 447.38,71.43 L 447.57,67.95 L 447.77,66.22 L 448.74,62.84 L 449.32,61.18 L 451.06,58.01 L 452.03,56.47 L 454.52,53.62 L 459.10,49.82 L 460.39,48.96 L 462.97,47.74 L 463.66,47.47 L 465.18,47.05 L 465.98,46.86 L 467.80,46.57 L 468.77,46.44 L 471.02,46.27 L 472.21,46.19 L 475.00,46.12 L 476.48,46.09 L 479.94,46.10 L 486.00,46.20 L 500.50,46.50 L 500.50,57.00 L 500.50,67.50 L 485.51,68.00 L 483.80,68.06 L 480.94,68.16 L 479.60,68.22 L 477.40,68.32 L 476.37,68.38 L 474.74,68.50 L 473.99,68.57 L 472.84,68.72 L 472.32,68.80 L 471.56,68.99 L 471.23,69.10 L 470.78,69.35 L 470.16,70.38 L 470.03,71.05 L 470.29,72.07 L 470.51,72.54 L 471.56,73.18 L 472.19,73.46 L 474.16,73.79 L 474.71,73.86 L 476.02,73.93 L 478.28,73.98 L 479.44,73.99 L 481.67,74.23 L 482.77,74.39 L 484.88,74.92 L 485.92,75.22 L 487.89,76.02 L 488.87,76.45 L 490.70,77.49 L 491.59,78.04 L 493.26,79.29 L 494.08,79.95 L 495.57,81.39 L 497.02,82.88 L 499.32,86.33 L 500.37,88.12 L 501.78,92.00 L 502.07,92.99 L 502.46,95.02 L 502.62,96.04 L 502.75,98.11 L 502.79,99.14 L 502.64,101.23 L 502.53,102.27 L 502.09,104.35 L 501.83,105.38 L 501.08,107.42 L 499.59,110.42 L 498.79,111.78 L 497.19,114.01 L 496.38,115.06 L 494.59,116.81 L 493.65,117.65 L 491.46,119.11 L 487.49,121.18 L 486.37,121.68 L 484.29,122.40 L 483.73,122.56 L 482.52,122.82 L 481.88,122.94 L 480.40,123.14 L 479.61,123.23 L 477.74,123.38 L 476.75,123.44 L 474.37,123.55 L 473.11,123.61 L 470.10,123.70 L 464.76,123.82 L 462.93,123.86 L 459.78,123.91 L 458.29,123.94 L 455.78,123.95 L 454.60,123.96 L 452.65,123.93 L 451.74,123.92 L 450.29,123.85 L 449.62,123.81 L 448.59,123.70 L 448.12,123.64 L 447.46,123.48 L 447.16,123.39 L 446.78,123.17 L 446.62,123.05 M 559.28,123.05 L 557.96,122.73 L 555.25,121.75 L 553.90,121.22 L 551.17,119.86 L 549.81,119.14 L 547.14,117.45 L 545.82,116.57 L 543.27,114.62 L 542.02,113.62 L 539.68,111.46 L 538.54,110.36 L 536.47,108.05 L 535.47,106.88 L 533.75,104.48 L 531.63,100.85 L 530.61,98.76 L 529.18,94.63 L 528.87,93.54 L 528.37,91.11 L 528.14,89.85 L 527.79,86.92 L 527.64,85.38 L 527.42,81.76 L 527.33,79.84 L 527.22,75.32 L 527.20,74.13 L 527.18,71.54 L 527.17,70.20 L 527.17,67.32 L 527.17,65.84 L 527.19,62.63 L 527.23,57.44 L 527.50,30.51 L 537.37,27.27 L 538.73,26.83 L 541.27,26.06 L 542.50,25.70 L 544.60,25.14 L 545.57,24.90 L 547.00,24.62 L 547.30,24.57 L 547.74,24.53 L 548.12,24.57 L 548.18,24.61 L 548.30,24.91 L 548.35,25.09 L 548.46,25.65 L 548.57,26.27 L 548.74,28.17 L 548.82,29.21 L 548.93,31.77 L 549.00,36.06 L 549.00,47.00 L 558.30,47.00 L 559.77,47.00 L 562.32,47.08 L 563.52,47.13 L 565.48,47.31 L 566.37,47.42 L 567.67,47.69 L 568.80,48.20 L 568.98,48.38 L 569.30,49.27 L 569.44,49.78 L 569.68,51.26 L 569.78,52.07 L 569.92,54.06 L 570.00,57.50 L 570.00,58.74 L 569.92,60.94 L 569.86,61.99 L 569.68,63.74 L 569.57,64.54 L 569.30,65.73 L 568.80,66.80 L 568.61,66.99 L 567.67,67.31 L 567.11,67.46 L 565.48,67.69 L 564.58,67.79 L 562.32,67.92 L 558.30,68.00 L 549.00,68.00 L 549.00,77.79 L 549.00,78.81 L 549.02,80.59 L 549.03,81.44 L 549.09,82.94 L 549.15,84.36 L 549.42,86.58 L 549.59,87.62 L 550.11,89.39 L 551.25,92.03 L 551.83,93.18 L 553.43,95.34 L 554.29,96.38 L 556.30,98.19 L 557.34,99.04 L 559.56,100.35 L 562.94,101.60 L 563.84,101.79 L 565.31,102.12 L 566.00,102.28 L 567.09,102.63 L 567.59,102.82 L 568.35,103.29 L 568.70,103.55 L 569.18,104.23 L 569.39,104.61 L 569.66,105.60 L 569.77,106.15 L 569.86,107.55 L 569.89,108.31 L 569.88,110.21 L 569.79,113.75 L 569.50,123.50 L 566.00,123.67 L 565.04,123.72 L 562.58,123.56 L 561.36,123.45 M 707.05,122.97 L 705.75,122.70 L 703.12,121.85 L 701.80,121.38 L 699.16,120.17 L 697.85,119.53 L 695.28,118.01 L 694.00,117.21 L 691.55,115.42 L 690.35,114.50 L 688.09,112.50 L 686.99,111.48 L 684.98,109.31 L 684.01,108.21 L 682.32,105.92 L 680.21,102.40 L 679.60,101.22 L 678.61,98.81 L 678.15,97.59 L 677.44,95.12 L 677.12,93.87 L 676.68,91.36 L 676.49,90.10 L 676.31,87.57 L 676.20,85.03 L 676.73,79.99 L 677.12,77.49 L 678.61,72.64 L 679.47,70.25 L 681.86,65.74 L 683.16,63.54 L 686.40,59.53 L 687.26,58.57 L 689.13,56.77 L 690.08,55.89 L 692.14,54.26 L 693.20,53.48 L 695.44,52.05 L 699.00,50.17 L 699.95,49.73 L 702.03,48.98 L 703.09,48.63 L 705.35,48.07 L 707.63,47.56 L 712.48,47.11 L 714.91,46.98 L 719.69,47.32 L 720.85,47.46 L 723.09,47.88 L 726.25,48.74 L 732.00,50.69 L 732.00,32.34 L 732.00,30.59 L 732.01,27.53 L 732.02,26.06 L 732.06,23.56 L 732.08,22.37 L 732.14,20.38 L 732.18,19.44 L 732.27,17.92 L 732.31,17.21 L 732.43,16.12 L 732.50,15.63 L 732.65,14.93 L 732.73,14.62 L 732.92,14.26 L 733.25,14.07 L 733.42,14.07 L 734.45,14.34 L 735.05,14.51 L 736.78,15.05 L 737.71,15.34 L 739.91,16.07 L 743.50,17.32 L 752.50,20.50 L 752.50,57.50 L 752.50,94.50 L 749.60,100.77 L 749.13,101.80 L 747.93,103.88 L 747.29,104.92 L 745.81,106.98 L 744.28,109.02 L 740.59,112.82 L 738.68,114.64 L 734.59,117.68 L 733.56,118.37 L 731.50,119.55 L 728.46,120.93 L 726.78,121.56 L 723.14,122.49 L 721.30,122.90 L 717.54,123.38 L 715.67,123.55 L 712.05,123.55 L 710.28,123.48 M 722.60,99.95 L 723.78,99.38 L 725.66,98.16 L 726.53,97.52 L 727.91,96.01 L 728.56,95.20 L 729.61,93.19 L 731.00,89.39 L 731.38,88.12 L 731.61,85.56 L 731.65,84.29 L 731.25,81.78 L 730.98,80.54 L 730.02,78.17 L 729.47,77.02 L 728.03,74.90 L 727.26,73.88 L 725.40,72.10 L 724.43,71.26 L 722.23,69.92 L 721.10,69.31 L 718.65,68.50 L 714.74,68.00 L 713.57,68.00 L 710.88,68.67 L 709.51,69.10 L 706.74,70.45 L 705.39,71.18 L 702.99,72.97 L 700.26,75.90 L 699.93,76.40 L 699.37,77.60 L 699.10,78.22 L 698.69,79.62 L 698.31,81.06 L 697.99,84.23 L 697.91,85.83 L 698.22,88.91 L 698.34,89.64 L 698.69,91.00 L 699.40,92.80 L 699.96,93.86 L 701.30,95.72 L 702.01,96.61 L 703.63,98.11 L 704.47,98.81 L 706.31,99.94 L 707.26,100.45 L 709.29,101.19 L 710.32,101.50 L 712.48,101.84 L 713.57,101.95 L 715.81,101.86 L 716.93,101.76 L 719.21,101.24 L 720.34,100.92 M 16.70,122.37 L 16.68,122.34 L 16.63,122.04 L 16.60,121.84 L 16.56,121.21 L 16.54,120.85 L 16.49,119.91 L 16.47,119.40 L 16.43,118.16 L 16.41,117.51 L 16.37,116.00 L 16.35,115.21 L 16.31,113.44 L 16.27,111.61 L 16.21,107.24 L 16.17,104.95 L 16.12,99.78 L 16.09,97.10 L 16.06,91.25 L 16.04,88.26 L 16.01,81.88 L 16.00,71.86 L 16.00,22.05 L 18.75,20.67 L 19.29,20.39 L 20.74,19.79 L 21.50,19.49 L 23.28,18.85 L 25.12,18.21 L 29.11,17.03 L 30.09,16.75 L 31.92,16.28 L 32.80,16.06 L 34.33,15.74 L 35.05,15.60 L 36.12,15.46 L 37.03,15.52 L 37.10,15.56 L 37.24,15.97 L 37.30,16.22 L 37.42,17.03 L 37.48,17.47 L 37.59,18.63 L 37.64,19.25 L 37.73,20.74 L 37.77,21.52 L 37.84,23.29 L 37.88,24.21 L 37.93,26.23 L 38.00,33.08 L 38.00,50.04 L 40.75,49.27 L 41.13,49.16 L 42.45,48.97 L 43.18,48.88 L 45.04,48.73 L 51.50,48.51 L 53.11,48.52 L 55.68,48.63 L 56.89,48.70 L 58.91,49.01 L 59.88,49.20 L 61.68,49.76 L 64.50,50.98 L 66.19,51.81 L 69.59,54.18 L 71.27,55.45 L 74.46,58.50 L 76.00,60.08 L 78.68,63.51 L 81.81,68.76 L 82.48,70.20 L 83.36,72.46 L 83.55,73.05 L 83.84,74.37 L 83.97,75.08 L 84.16,76.79 L 84.25,77.73 L 84.36,80.07 L 84.40,81.35 L 84.46,84.55 L 84.47,85.42 L 84.48,87.35 L 84.49,88.35 L 84.49,90.58 L 84.50,91.73 L 84.50,94.28 L 84.50,98.50 L 84.50,122.50 L 74.00,122.50 L 63.50,122.50 L 63.00,100.00 L 62.96,98.04 L 62.86,94.50 L 62.81,92.79 L 62.70,89.74 L 62.64,88.27 L 62.52,85.69 L 62.45,84.46 L 62.31,82.33 L 62.24,81.33 L 62.08,79.64 L 62.00,78.84 L 61.82,77.57 L 61.73,76.99 L 61.53,76.12 L 61.21,75.25 L 60.77,74.47 L 59.59,73.14 L 58.96,72.52 L 57.48,71.52 L 56.71,71.06 L 55.01,70.40 L 54.14,70.11 L 52.31,69.80 L 51.39,69.69 L 49.51,69.74 L 48.57,69.81 L 46.73,70.23 L 45.83,70.48 L 44.11,71.28 L 41.77,72.92 L 38.50,75.83 L 38.00,99.17 L 37.50,122.50 L 27.45,122.78 L 26.07,122.82 L 23.49,122.84 L 22.25,122.84 L 20.15,122.78 L 19.17,122.74 L 17.76,122.62 L 17.17,122.55 M 210.23,121.83 L 210.14,121.74 L 209.96,121.26 L 209.88,120.98 L 209.73,120.17 L 209.65,119.73 L 209.52,118.62 L 209.46,118.03 L 209.35,116.66 L 209.25,115.23 L 209.11,111.77 L 209.05,109.96 L 209.01,105.98 L 208.99,101.93 L 209.23,93.65 L 209.31,91.67 L 209.56,88.06 L 210.03,83.50 L 210.39,80.99 L 211.64,76.33 L 212.36,74.05 L 214.36,69.80 L 215.47,67.72 L 218.27,63.81 L 223.43,58.22 L 224.31,57.39 L 226.35,55.68 L 227.40,54.83 L 229.58,53.21 L 230.66,52.43 L 232.72,51.09 L 235.37,49.60 L 236.99,48.84 L 240.85,47.57 L 242.81,46.99 L 246.66,46.21 L 247.58,46.05 L 249.25,45.86 L 250.05,45.78 L 251.39,45.76 L 252.01,45.78 L 252.91,45.96 L 253.63,46.48 L 253.69,46.64 L 253.78,47.67 L 253.82,48.29 L 253.86,50.06 L 253.88,51.01 L 253.87,53.28 L 253.79,57.01 L 253.50,66.37 L 248.81,67.57 L 247.10,68.00 L 244.08,69.17 L 242.63,69.80 L 240.12,71.38 L 238.92,72.22 L 236.86,74.25 L 234.24,77.84 L 233.57,78.98 L 232.67,80.86 L 232.48,81.36 L 232.17,82.48 L 232.02,83.08 L 231.80,84.54 L 231.69,85.33 L 231.53,87.30 L 231.46,88.36 L 231.34,91.03 L 231.28,92.47 L 231.17,96.01 L 231.14,96.95 L 231.09,99.05 L 231.00,102.50 L 230.50,122.50 L 220.98,122.78 L 219.35,122.83 L 216.66,122.84 L 215.41,122.82 L 213.47,122.70 L 212.59,122.62 L 211.35,122.37 L 210.81,122.22 M 295.17,121.29 L 294.95,120.88 L 294.28,119.42 L 293.90,118.58 L 292.93,116.35 L 292.42,115.14 L 291.21,112.26 L 290.58,110.74 L 289.18,107.33 L 288.45,105.56 L 286.90,101.74 L 286.11,99.79 L 284.46,95.67 L 282.79,91.51 L 279.35,82.82 L 277.65,78.50 L 274.42,70.23 L 273.65,68.23 L 272.20,64.48 L 271.50,62.65 L 270.24,59.33 L 269.64,57.73 L 268.61,54.96 L 268.13,53.66 L 267.38,51.56 L 267.05,50.61 L 266.63,49.30 L 266.41,48.37 L 266.51,48.11 L 267.16,47.72 L 267.57,47.54 L 268.97,47.30 L 269.78,47.19 L 272.10,47.07 L 272.75,47.04 L 274.24,47.02 L 276.81,47.00 L 277.84,47.00 L 279.60,47.02 L 280.44,47.03 L 281.86,47.07 L 282.54,47.10 L 283.68,47.17 L 284.21,47.21 L 285.10,47.33 L 285.93,47.46 L 287.03,47.87 L 288.17,48.75 L 288.27,48.87 L 288.62,49.49 L 288.81,49.86 L 289.33,50.95 L 289.60,51.54 L 290.26,53.02 L 290.60,53.80 L 291.38,55.63 L 291.78,56.58 L 292.65,58.69 L 293.09,59.78 L 294.03,62.11 L 297.01,69.71 L 304.36,88.92 L 311.81,69.71 L 312.83,67.07 L 314.82,62.11 L 315.30,60.92 L 316.23,58.69 L 316.68,57.60 L 317.52,55.63 L 317.92,54.68 L 318.66,53.02 L 319.01,52.23 L 319.60,50.95 L 319.88,50.35 L 320.33,49.49 L 320.78,48.75 L 321.10,48.39 L 321.95,47.87 L 322.44,47.63 L 323.90,47.33 L 324.32,47.27 L 325.33,47.17 L 325.86,47.13 L 327.14,47.07 L 327.82,47.04 L 329.41,47.02 L 332.19,47.00 L 333.93,47.00 L 336.70,47.07 L 337.98,47.12 L 339.85,47.29 L 340.69,47.39 L 341.75,47.68 L 342.52,48.25 L 342.55,48.34 L 342.31,49.25 L 342.14,49.82 L 341.52,51.62 L 341.17,52.62 L 340.22,55.20 L 339.71,56.59 L 338.47,59.85 L 337.81,61.57 L 336.32,65.41 L 335.54,67.40 L 333.83,71.73 L 332.95,73.94 L 331.06,78.64 L 328.08,86.00 L 313.18,122.50 L 304.65,122.79 L 303.73,122.82 L 302.16,122.86 L 301.42,122.87 L 300.17,122.88 L 299.59,122.87 L 298.63,122.83 L 298.18,122.80 L 297.45,122.71 L 296.78,122.60 L 295.96,122.21 L 295.60,121.98 M 378.30,121.19 L 376.61,120.59 L 373.42,119.10 L 371.87,118.31 L 368.97,116.47 L 367.56,115.50 L 364.98,113.32 L 363.72,112.19 L 361.46,109.70 L 360.37,108.42 L 358.45,105.63 L 357.54,104.21 L 355.99,101.15 L 355.26,99.60 L 354.09,96.30 L 352.78,91.10 L 352.40,89.07 L 352.21,85.02 L 352.20,83.00 L 352.70,79.01 L 353.04,77.03 L 354.21,73.18 L 354.87,71.28 L 356.66,67.65 L 357.63,65.87 L 360.00,62.52 L 361.25,60.90 L 364.16,57.92 L 365.68,56.48 L 369.09,53.94 L 374.72,50.71 L 376.24,50.00 L 378.62,49.00 L 379.75,48.57 L 381.86,48.04 L 382.95,47.82 L 385.49,47.61 L 386.18,47.57 L 387.76,47.54 L 390.50,47.52 L 391.45,47.52 L 393.11,47.55 L 393.90,47.56 L 395.31,47.62 L 396.66,47.70 L 398.85,48.01 L 399.90,48.19 L 401.85,48.79 L 405.00,50.11 L 407.03,51.07 L 410.89,53.54 L 412.77,54.86 L 416.21,57.94 L 417.87,59.55 L 420.73,63.10 L 424.22,68.79 L 424.60,69.57 L 425.23,70.90 L 425.53,71.55 L 426.02,72.70 L 426.47,73.83 L 427.00,75.97 L 427.22,77.08 L 427.42,79.81 L 427.45,80.57 L 427.48,82.34 L 427.50,85.48 L 427.50,95.50 L 402.14,96.00 L 400.65,96.03 L 397.93,96.08 L 396.61,96.11 L 394.22,96.16 L 393.06,96.19 L 390.97,96.24 L 389.97,96.27 L 388.17,96.32 L 386.44,96.37 L 383.77,96.48 L 382.56,96.54 L 380.80,96.67 L 380.02,96.75 L 379.03,96.92 L 378.61,97.01 L 378.23,97.24 L 378.10,97.36 L 378.18,97.65 L 378.65,98.18 L 379.27,98.74 L 380.70,99.68 L 381.45,100.12 L 383.10,100.82 L 383.94,101.13 L 385.73,101.58 L 386.64,101.77 L 388.52,101.96 L 390.42,102.09 L 394.21,101.57 L 395.14,101.37 L 396.93,100.78 L 399.44,99.59 L 403.56,97.17 L 410.86,103.84 L 418.16,110.50 L 414.83,113.70 L 413.76,114.72 L 411.28,116.54 L 409.99,117.41 L 407.14,118.90 L 405.68,119.60 L 402.55,120.74 L 400.97,121.27 L 397.68,122.04 L 396.02,122.38 L 392.66,122.77 L 390.98,122.91 L 387.66,122.89 L 386.01,122.83 L 382.82,122.37 L 381.25,122.09 M 402.94,73.43 L 402.39,72.77 L 400.60,71.46 L 399.63,70.83 L 397.30,69.72 L 396.11,69.21 L 393.67,68.48 L 390.36,68.00 L 389.30,68.00 L 386.71,68.56 L 385.38,68.91 L 382.73,69.95 L 381.45,70.50 L 379.38,71.75 L 378.92,72.06 L 378.24,72.68 L 377.62,73.55 L 377.50,73.85 L 377.84,74.29 L 378.00,74.39 L 378.51,74.55 L 378.81,74.62 L 379.66,74.73 L 380.13,74.79 L 381.36,74.86 L 382.03,74.90 L 383.71,74.95 L 384.61,74.97 L 386.78,74.99 L 390.65,75.00 L 392.18,75.00 L 394.75,74.99 L 395.95,74.98 L 397.91,74.95 L 398.82,74.94 L 400.23,74.88 L 400.88,74.84 L 401.83,74.75 L 402.25,74.69 L 402.80,74.55 L 403.03,74.47 L 403.24,74.27 L 403.38,74.06 M 610.29,121.60 L 608.99,121.18 L 606.46,120.12 L 605.22,119.56 L 602.80,118.24 L 601.61,117.55 L 599.33,115.98 L 598.21,115.17 L 596.10,113.38 L 595.06,112.46 L 593.12,110.47 L 592.18,109.45 L 590.45,107.28 L 589.62,106.17 L 588.12,103.83 L 586.16,100.18 L 585.59,98.95 L 584.78,96.89 L 584.42,95.88 L 583.97,93.83 L 583.78,92.75 L 583.59,90.14 L 583.56,89.43 L 583.52,87.80 L 583.50,85.00 L 583.50,83.97 L 583.52,82.18 L 583.53,81.33 L 583.59,79.84 L 583.66,78.42 L 583.97,76.15 L 584.16,75.07 L 584.79,73.07 L 586.20,69.73 L 586.64,68.81 L 587.71,66.94 L 588.28,66.00 L 589.60,64.13 L 590.97,62.27 L 594.28,58.72 L 596.00,57.01 L 599.74,54.01 L 605.50,50.47 L 606.84,49.82 L 608.99,48.92 L 610.03,48.52 L 612.08,48.04 L 613.15,47.84 L 615.76,47.65 L 616.47,47.62 L 618.12,47.59 L 621.00,47.58 L 622.04,47.58 L 623.84,47.60 L 624.70,47.62 L 626.19,47.68 L 627.61,47.75 L 629.84,48.07 L 630.91,48.26 L 632.87,48.91 L 636.15,50.37 L 638.06,51.30 L 641.53,53.45 L 643.21,54.57 L 646.22,57.06 L 647.67,58.35 L 650.20,61.17 L 651.41,62.63 L 653.45,65.76 L 654.41,67.36 L 655.95,70.78 L 656.66,72.52 L 657.69,76.20 L 658.14,78.08 L 658.64,82.01 L 658.80,88.16 L 658.50,95.50 L 633.02,96.00 L 607.54,96.50 L 610.37,98.72 L 611.03,99.24 L 612.56,100.09 L 613.36,100.49 L 615.09,101.09 L 615.98,101.35 L 617.85,101.70 L 618.80,101.84 L 620.73,101.93 L 621.70,101.95 L 623.61,101.78 L 624.56,101.67 L 626.39,101.25 L 627.28,101.01 L 628.95,100.33 L 631.18,99.03 L 634.05,96.90 L 641.47,103.70 L 648.89,110.50 L 646.20,113.31 L 645.84,113.69 L 644.65,114.65 L 644.00,115.14 L 642.40,116.23 L 637.03,119.31 L 635.67,119.97 L 633.42,120.94 L 632.33,121.37 L 630.26,121.95 L 629.21,122.20 L 626.86,122.49 L 622.52,122.73 L 620.17,122.80 L 615.57,122.51 L 614.49,122.41 L 612.58,122.13 L 611.68,121.98 M 634.00,74.04 L 634.00,73.79 L 633.62,73.20 L 633.37,72.90 L 632.58,72.25 L 632.14,71.92 L 631.03,71.24 L 630.45,70.91 L 629.13,70.26 L 627.78,69.63 L 624.86,68.66 L 624.15,68.46 L 622.81,68.18 L 621.00,68.00 L 620.46,68.00 L 619.19,68.18 L 618.54,68.29 L 617.14,68.66 L 615.71,69.07 L 612.87,70.26 L 612.19,70.58 L 610.97,71.24 L 610.38,71.58 L 609.42,72.25 L 608.98,72.58 L 608.38,73.20 L 608.00,74.04 L 608.00,74.11 L 608.25,74.24 L 608.41,74.31 L 608.96,74.43 L 609.27,74.49 L 610.10,74.59 L 610.55,74.64 L 611.64,74.73 L 612.79,74.82 L 615.75,74.93 L 621.00,75.00 L 622.90,75.00 L 626.25,74.93 L 627.82,74.88 L 630.36,74.73 L 630.93,74.69 L 631.90,74.59 L 632.34,74.54 L 633.04,74.43 L 633.35,74.37 L 633.75,74.24 L 633.92,74.18 Z" fill="rgba(84,189,149,1)"/>
</g>
</svg>